<svg xmlns="http://www.w3.org/2000/svg" width="800" height="286" fill="none" viewBox="0 0 800 286">
    <g clip-path="url(#clip)">
        <rect width="800" height="286" fill="url(#drizzleBg)" rx="20"/>
        <circle cx="400" cy="-20" r="300" fill="url(#mistGlow)" opacity="0.4"/>
        <path fill="url(#mistLayer)" d="M-50 140c100-10 200 10 400 0s200-10 300 0 100 10 200 0v146H-50V140z" opacity="0.3"/>
        <g stroke="#E2E8F0" stroke-width="0.8" stroke-linecap="round" opacity="0.5">
            <line x1="100" y1="30" x2="100" y2="34"/><line x1="250" y1="50" x2="250" y2="54"/>
            <line x1="400" y1="20" x2="400" y2="24"/><line x1="550" y1="60" x2="550" y2="64"/>
            <line x1="700" y1="40" x2="700" y2="44"/><line x1="50" y1="120" x2="50" y2="124"/>
            <line x1="200" y1="130" x2="200" y2="134"/><line x1="350" y1="110" x2="350" y2="114"/>
            <line x1="500" y1="140" x2="500" y2="144"/><line x1="650" y1="100" x2="650" y2="104"/>
        </g>
        <path fill="url(#frontCloud)" d="M450 286c0-30 25-55 55-55 10 0 20 3 30 8 15-25 45-42 80-42 40 0 75 25 85 60 5-2 10-3 15-3 30 0 55 25 55 55v17H450v-40z" opacity="0.9"/>
    </g>
    <defs>
        <linearGradient id="drizzleBg" x1="400" x2="400" y1="0" y2="286" gradientUnits="userSpaceOnUse">
            <stop stop-color="#475569"/><stop offset="1" stop-color="#1E293B"/>
        </linearGradient>
        <radialGradient id="mistGlow" cx="0" cy="0" r="1" gradientUnits="userSpaceOnUse" gradientTransform="translate(400 -20) rotate(90) scale(300)">
            <stop stop-color="#94A3B8" stop-opacity="0.6"/><stop offset="1" stop-color="#475569" stop-opacity="0"/>
        </radialGradient>
        <linearGradient id="mistLayer" x1="400" x2="400" y1="140" y2="286" gradientUnits="userSpaceOnUse">
            <stop stop-color="#64748B"/><stop offset="1" stop-color="#"/>
        </linearGradient>
        <linearGradient id="frontCloud" x1="625" x2="625" y1="197" y2="286" gradientUnits="userSpaceOnUse">
            <stop stop-color="#94A3B8"/><stop offset="1" stop-color="#475569"/>
        </linearGradient>
        <clipPath id="clip"><rect width="800" height="286" rx="20"/></clipPath>
    </defs>
</svg>