<svg xmlns="http://www.w3.org/2000/svg" width="343" height="286" fill="none" viewBox="0 0 343 286">
    <g clip-path="url(#clip)">
        <rect width="343" height="286" fill="url(#skyGrad)" rx="20"/>

        <circle cx="280" cy="60" r="100" fill="url(#sunGlow)" opacity="0.6"/>
        <circle cx="280" cy="60" r="40" fill="url(#sunCore)"/>

        <path fill="url(#cloudFar)" d="M-50 220c30-20 70-20 100 0s70 20 100 0 70-20 100 0 70 20 100 0v100H-50V220z" opacity="0.4"/>

        <path fill="url(#cloudNear)" d="M120 286c0-35 30-65 65-65 10 0 20 3 30 8 15-25 45-42 80-42 50 0 90 40 90 90v9H120v-0z" opacity="0.9"/>

        <path fill="#fff" d="m40 50 1.5-3 .05 3.5 3-2-1.7 3.1 3.7-.5-3.1 2 3.5 1.2-3.7.4 2.5 2.6-3.5-1.3.9 3.4-2.4-2.7-.8 3.5-.8-3.5-2.4 2.7.9-3.4-3.5 1.3 2.5-2.6-3.7-.4 3.5-1.2-3.1-2 3.7.5-1.7-3.1 3 2-.05-3.5 1.5 3z" opacity=".3"/>
    </g>

    <defs>
        <linearGradient id="skyGrad" x1="0" x2="343" y1="0" y2="286" gradientUnits="userSpaceOnUse">
            <stop stop-color="#4658D9"/>
            <stop offset="1" stop-color="#2B1B9C"/>
        </linearGradient>

        <radialGradient id="sunGlow" cx="0" cy="0" r="1" gradientUnits="userSpaceOnUse" gradientTransform="translate(280 60) rotate(90) scale(100)">
            <stop stop-color="#FFD200" stop-opacity="0.5"/>
            <stop offset="1" stop-color="#FFD200" stop-opacity="0"/>
        </radialGradient>

        <linearGradient id="sunCore" x1="280" x2="280" y1="20" y2="100" gradientUnits="userSpaceOnUse">
            <stop stop-color="#FFF3B0"/>
            <stop offset="1" stop-color="#FF820A"/>
        </linearGradient>

        <linearGradient id="cloudFar" x1="171" x2="171" y1="200" y2="286" gradientUnits="userSpaceOnUse">
            <stop stop-color="#5E6FE8"/>
            <stop offset="1" stop-color="#2B1B9C"/>
        </linearGradient>

        <linearGradient id="cloudNear" x1="245" x2="245" y1="180" y2="286" gradientUnits="userSpaceOnUse">
            <stop stop-color="#FFFFFF"/>
            <stop offset="1" stop-color="#A5B1FF"/>
        </linearGradient>

        <clipPath id="clip">
            <rect width="343" height="286" rx="20"/>
        </clipPath>
    </defs>
</svg>