<svg xmlns="http://www.w3.org/2000/svg" width="343" height="286" fill="none" viewBox="0 0 343 286">
    <g clip-path="url(#clip)">
        <rect width="343" height="286" fill="url(#drizzleBg)" rx="20"/>

        <circle cx="171.5" cy="-20" r="200" fill="url(#mistGlow)" opacity="0.4"/>

        <path fill="url(#mistLayer)" d="M-50 140c60-10 120 10 180 0s120-10 180 0 60 10 100 0v146H-50V140z" opacity="0.3"/>

        <g stroke="#E2E8F0" stroke-width="0.8" stroke-linecap="round" opacity="0.5">
            <line x1="20" y1="30" x2="20" y2="34"/><line x1="50" y1="50" x2="50" y2="54"/>
            <line x1="90" y1="20" x2="90" y2="24"/><line x1="130" y1="60" x2="130" y2="64"/>
            <line x1="170" y1="40" x2="170" y2="44"/><line x1="210" y1="70" x2="210" y2="74"/>
            <line x1="250" y1="30" x2="250" y2="34"/><line x1="300" y1="55" x2="300" y2="59"/>
            <line x1="40" y1="100" x2="40" y2="104"/><line x1="80" y1="120" x2="80" y2="124"/>
            <line x1="120" y1="90" x2="120" y2="94"/><line x1="160" y1="130" x2="160" y2="134"/>
            <line x1="200" y1="110" x2="200" y2="114"/><line x1="240" y1="140" x2="240" y2="144"/>
            <line x1="280" y1="100" x2="280" y2="104"/><line x1="320" y1="125" x2="320" y2="129"/>
            <line x1="30" y1="180" x2="30" y2="184"/><line x1="70" y1="200" x2="70" y2="204"/>
            <line x1="110" y1="170" x2="110" y2="174"/><line x1="150" y1="210" x2="150" y2="214"/>
            <line x1="190" y1="190" x2="190" y2="194"/><line x1="230" y1="220" x2="230" y2="224"/>
            <line x1="270" y1="180" x2="270" y2="184"/><line x1="310" y1="205" x2="310" y2="209"/>
        </g>

        <path fill="url(#frontCloud)" d="M-10 286c0-30 25-55 55-55 10 0 20 3 30 8 15-25 45-42 80-42 40 0 75 25 85 60 5-2 10-3 15-3 30 0 55 25 55 55v17H-10v-40z" opacity="0.9"/>
    </g>

    <defs>
        <linearGradient id="drizzleBg" x1="171.5" x2="171.5" y1="0" y2="286" gradientUnits="userSpaceOnUse">
            <stop stop-color="#475569"/>
            <stop offset="1" stop-color="#1E293B"/>
        </linearGradient>

        <radialGradient id="mistGlow" cx="0" cy="0" r="1" gradientUnits="userSpaceOnUse" gradientTransform="translate(171.5 -20) rotate(90) scale(200)">
            <stop stop-color="#94A3B8" stop-opacity="0.6"/>
            <stop offset="1" stop-color="#475569" stop-opacity="0"/>
        </radialGradient>

        <linearGradient id="mistLayer" x1="171.5" x2="171.5" y1="140" y2="286" gradientUnits="userSpaceOnUse">
            <stop stop-color="#64748B"/>
            <stop offset="1" stop-color="#1E293B"/>
        </linearGradient>

        <linearGradient id="frontCloud" x1="171.5" x2="171.5" y1="197" y2="286" gradientUnits="userSpaceOnUse">
            <stop stop-color="#94A3B8"/>
            <stop offset="1" stop-color="#475569"/>
        </linearGradient>

        <clipPath id="clip">
            <rect width="343" height="286" rx="20"/>
        </clipPath>
    </defs>
</svg>