<svg xmlns="http://www.w3.org/2000/svg" width="800" height="286" fill="none" viewBox="0 0 800 286">
    <g clip-path="url(#clip)">
        <rect width="800" height="286" fill="url(#skyGrad)" rx="20"/>

        <circle cx="700" cy="50" r="180" fill="url(#horizonGlow)" opacity="0.4"/>

        <circle cx="700" cy="50" r="45" fill="url(#sunCore)"/>

        <path fill="#fff" d="m100 40 1.5-3 .05 3.5 3-2-1.7 3.1 3.7-.5-3.1 2 3.5 1.2-3.7.4 2.5 2.6-3.5-1.3.9 3.4-2.4-2.7-.8 3.5-.8-3.5-2.4 2.7.9-3.4-3.5 1.3 2.5-2.6-3.7-.4 3.5-1.2-3.1-2 3.7.5-1.7-3.1 3 2-.05-3.5 1.5 3z" opacity=".2"/>
        <path fill="#fff" d="m350 220 1.5-3 .05 3.5 3-2-1.7 3.1 3.7-.5-3.1 2 3.5 1.2-3.7.4 2.5 2.6-3.5-1.3.9 3.4-2.4-2.7-.8 3.5-.8-3.5-2.4 2.7.9-3.4-3.5 1.3 2.5-2.6-3.7-.4 3.5-1.2-3.1-2 3.7.5-1.7-3.1 3 2-.05-3.5 1.5 3z" opacity=".15"/>
        <path fill="#fff" d="m600 240 1.5-3 .05 3.5 3-2-1.7 3.1 3.7-.5-3.1 2 3.5 1.2-3.7.4 2.5 2.6-3.5-1.3.9 3.4-2.4-2.7-.8 3.5-.8-3.5-2.4 2.7.9-3.4-3.5 1.3 2.5-2.6-3.7-.4 3.5-1.2-3.1-2 3.7.5-1.7-3.1 3 2-.05-3.5 1.5 3z" opacity=".2"/>
    </g>

    <defs>
        <linearGradient id="skyGrad" x1="400" x2="400" y1="0" y2="286" gradientUnits="userSpaceOnUse">
            <stop stop-color="#3A7BD5"/>
            <stop offset="1" stop-color="#00468C"/>
        </linearGradient>

        <radialGradient id="horizonGlow" cx="0" cy="0" r="1" gradientUnits="userSpaceOnUse" gradientTransform="translate(700 50) rotate(90) scale(180)">
            <stop stop-color="#80D0FF" stop-opacity="0.6"/>
            <stop offset="1" stop-color="#3A7BD5" stop-opacity="0"/>
        </radialGradient>

        <linearGradient id="sunCore" x1="700" x2="700" y1="5" y2="95" gradientUnits="userSpaceOnUse">
            <stop stop-color="#FFFFFF"/>
            <stop offset="1" stop-color="#FFD200"/>
        </linearGradient>

        <clipPath id="clip">
            <rect width="800" height="286" rx="20"/>
        </clipPath>
    </defs>
</svg>