<svg xmlns="http://www.w3.org/2000/svg" width="343" height="286" fill="none" viewBox="0 0 343 286">
    <g clip-path="url(#clip)">
        <rect width="343" height="286" fill="url(#stormSky)" rx="20"/>

        <circle cx="180" cy="120" r="150" fill="url(#flashGlow)" opacity="0.6"/>

        <path fill="url(#stormCloud)" d="M-20 100c40-20 80 20 120 0 30-30 70-40 110-20 40-20 80 10 120 30v100H-20V100z" opacity="0.7"/>

        <path fill="#FFFDE7" opacity="0.3" d="M260 20l-40 80h30l-20 100 60-110h-35l45-70h-40z"/>

        <g stroke="url(#stormRain)" stroke-width="1.5" stroke-linecap="round" opacity="0.5">
            <line x1="60" y1="40" x2="50" y2="70"/> <line x1="280" y1="60" x2="270" y2="90"/>
            <line x1="100" y1="120" x2="90" y2="150"/> <line x1="320" y1="140" x2="310" y2="170"/>
            <line x1="40" y1="200" x2="30" y2="230"/> <line x1="240" y1="210" x2="230" y2="240"/>
        </g>
    </g>

    <defs>
        <linearGradient id="stormSky" x1="171.5" x2="171.5" y1="0" y2="286" gradientUnits="userSpaceOnUse">
            <stop stop-color="#1A1333"/>
            <stop offset="1" stop-color="#0D091A"/>
        </linearGradient>

        <radialGradient id="flashGlow" cx="0" cy="0" r="1" gradientUnits="userSpaceOnUse" gradientTransform="translate(180 120) rotate(90) scale(150)">
            <stop stop-color="#FFFDE7" stop-opacity="0.8"/>
            <stop offset="1" stop-color="#1A1333" stop-opacity="0"/>
        </radialGradient>

        <linearGradient id="stormCloud" x1="171.5" x2="171.5" y1="60" y2="200" gradientUnits="userSpaceOnUse">
            <stop stop-color="#3E335E"/>
            <stop offset="1" stop-color="#1A1333"/>
        </linearGradient>

        <linearGradient id="stormRain" x1="0" x2="0" y1="0" y2="1">
            <stop stop-color="#B39DDB" stop-opacity="0.6"/>
            <stop offset="1" stop-color="#B39DDB" stop-opacity="0.1"/>
        </linearGradient>

        <clipPath id="clip">
            <rect width="343" height="286" rx="20"/>
        </clipPath>
    </defs>
</svg>