<svg xmlns="http://www.w3.org/2000/svg" width="343" height="286" fill="none" viewBox="0 0 343 286">
    <g clip-path="url(#clip)">
        <rect width="343" height="286" fill="url(#fogBg)" rx="20"/>

        <circle cx="171.5" cy="80" r="60" fill="url(#fadedGlow)" opacity="0.3"/>

        <path fill="url(#mistGrad1)" d="M-50 150c80-15 150 15 250 0s150 15 200 0v136H-50V150z" opacity="0.4"/>

        <path fill="url(#mistGrad2)" d="M-20 190c100 10 200-10 300 0s100-10 150 0v96H-20V190z" opacity="0.6"/>

        <path fill="url(#mistGrad3)" d="M0 230c60-5 120 5 180 0s120 5 180 0v56H0V230z" opacity="0.8"/>

        <circle cx="50" cy="60" r="1" fill="#fff" opacity="0.2"/>
        <circle cx="290" cy="120" r="1.5" fill="#fff" opacity="0.1"/>
        <circle cx="120" cy="40" r="1" fill="#fff" opacity="0.15"/>
    </g>

    <defs>
        <linearGradient id="fogBg" x1="171.5" x2="171.5" y1="0" y2="286" gradientUnits="userSpaceOnUse">
            <stop stop-color="#94A3B8"/>
            <stop offset="1" stop-color="#475569"/>
        </linearGradient>

        <radialGradient id="fadedGlow" cx="0" cy="0" r="1" gradientUnits="userSpaceOnUse" gradientTransform="translate(171.5 80) rotate(90) scale(80)">
            <stop stop-color="#E2E8F0" stop-opacity="0.5"/>
            <stop offset="1" stop-color="#94A3B8" stop-opacity="0"/>
        </radialGradient>

        <linearGradient id="mistGrad1" x1="171.5" x2="171.5" y1="150" y2="286" gradientUnits="userSpaceOnUse">
            <stop stop-color="#CBD5E1"/>
            <stop offset="1" stop-color="#64748B"/>
        </linearGradient>

        <linearGradient id="mistGrad2" x1="171.5" x2="171.5" y1="190" y2="286" gradientUnits="userSpaceOnUse">
            <stop stop-color="#F1F5F9"/>
            <stop offset="1" stop-color="#94A3B8"/>
        </linearGradient>

        <linearGradient id="mistGrad3" x1="171.5" x2="171.5" y1="230" y2="286" gradientUnits="userSpaceOnUse">
            <stop stop-color="#FFFFFF"/>
            <stop offset="1" stop-color="#E2E8F0"/>
        </linearGradient>

        <clipPath id="clip">
            <rect width="343" height="286" rx="20"/>
        </clipPath>
    </defs>
</svg>