<svg xmlns="http://www.w3.org/2000/svg" width="800" height="286" fill="none" viewBox="0 0 800 286">
    <g clip-path="url(#clip)">
        <rect width="800" height="286" fill="url(#heavyRainSky)" rx="20"/>

        <path fill="url(#darkCloud)" d="M-30 100c100-15 250 15 400 0s250-15 400 0 100 15 150 0v120H-30V100z" opacity="0.5"/>

        <g stroke="url(#rainStroke)" stroke-width="2" stroke-linecap="round" opacity="0.7">
            <line x1="50" y1="20" x2="40" y2="50"/><line x1="150" y1="10" x2="140" y2="40"/>
            <line x1="250" y1="40" x2="240" y2="70"/><line x1="350" y1="20" x2="340" y2="50"/>
            <line x1="450" y1="30" x2="440" y2="60"/><line x1="550" y1="10" x2="540" y2="40"/>
            <line x1="650" y1="40" x2="640" y2="70"/><line x1="750" y1="20" x2="740" y2="50"/>

            <line x1="100" y1="80" x2="90" y2="110"/><line x1="200" y1="70" x2="190" y2="100"/>
            <line x1="300" y1="90" x2="290" y2="120"/><line x1="400" y1="75" x2="390" y2="105"/>
            <line x1="500" y1="85" x2="490" y2="115"/><line x1="600" y1="70" x2="590" y2="100"/>
            <line x1="700" y1="90" x2="690" y2="120"/><line x1="60" y1="140" x2="50" y2="170"/>
            <line x1="180" y1="130" x2="170" y2="160"/><line x1="280" y1="150" x2="270" y2="180"/>
            <line x1="380" y1="140" x2="370" y2="170"/><line x1="480" y1="130" x2="470" y2="160"/>
            <line x1="580" y1="150" x2="570" y2="180"/><line x1="680" y1="135" x2="670" y2="165"/>
            <line x1="780" y1="145" x2="770" y2="175"/>

            <line x1="30" y1="200" x2="20" y2="230"/><line x1="130" y1="190" x2="120" y2="220"/>
            <line x1="230" y1="210" x2="220" y2="240"/><line x1="330" y1="200" x2="320" y2="230"/>
            <line x1="430" y1="190" x2="420" y2="220"/><line x1="530" y1="210" x2="520" y2="240"/>
            <line x1="630" y1="200" x2="620" y2="230"/><line x1="730" y1="215" x2="720" y2="245"/>
            <line x1="80" y1="250" x2="70" y2="280"/><line x1="250" y1="240" x2="240" y2="270"/>
            <line x1="450" y1="255" x2="440" y2="285"/><line x1="650" y1="245" x2="640" y2="275"/>
        </g>

        <path fill="url(#darkCloudFront)" d="M440 286c0-35 30-60 65-60 10 0 20 5 30 10 15-25 45-45 85-45 40 0 75 20 90 55 5-5 15-10 25-10 30 0 55 25 55 55v5H440v-10z" opacity="0.9"/>
    </g>

    <defs>
        <linearGradient id="heavyRainSky" x1="400" x2="400" y1="0" y2="286" gradientUnits="userSpaceOnUse">
            <stop stop-color="#37474F"/>
            <stop offset="1" stop-color="#263238"/>
        </linearGradient>

        <linearGradient id="darkCloud" x1="400" x2="400" y1="100" y2="220" gradientUnits="userSpaceOnUse">
            <stop stop-color="#546E7A"/>
            <stop offset="1" stop-color="#263238"/>
        </linearGradient>

        <linearGradient id="darkCloudFront" x1="620" x2="620" y1="186" y2="286" gradientUnits="userSpaceOnUse">
            <stop stop-color="#78909C"/>
            <stop offset="1" stop-color="#37474F"/>
        </linearGradient>

        <linearGradient id="rainStroke" x1="0" x2="0" y1="0" y2="1">
            <stop stop-color="#ECEFF1" stop-opacity="0.6"/>
            <stop offset="1" stop-color="#CFD8DC" stop-opacity="0.1"/>
        </linearGradient>

        <clipPath id="clip">
            <rect width="800" height="286" rx="20"/>
        </clipPath>
    </defs>
</svg>